<svg
 xmlns="http://www.w3.org/2000/svg"
 xmlns:xlink="http://www.w3.org/1999/xlink"
 width="504px" height="170px">
<path fill-rule="evenodd"  fill="rgb(16, 122, 217)"
 d="M203.000,0.000 L474.000,0.000 C490.569,0.000 504.000,13.431 504.000,30.000 L504.000,140.000 C504.000,156.568 490.569,170.000 474.000,170.000 L203.000,170.000 C186.431,170.000 173.000,137.569 173.000,121.000 C173.000,121.000 157.850,123.403 141.522,120.059 C116.192,114.870 71.517,92.489 44.000,86.000 C17.905,79.846 -0.000,97.555 -0.000,96.000 C-0.000,94.583 11.878,80.835 35.000,79.000 C55.661,77.360 114.179,95.837 132.000,94.000 C164.313,90.670 173.000,56.762 173.000,53.000 C173.000,22.467 173.000,30.000 173.000,30.000 C173.000,13.431 186.431,0.000 203.000,0.000 Z"/>
</svg>
